<svg xmlns="http://www.w3.org/2000/svg" viewBox="0 0 32 32"><defs><style>.cls-1{fill:#373737;}</style></defs><title>INSTAGRAM</title><g id="INSTAGRAM"><path class="cls-1" d="M23.61,8.62a1,1,0,1,1-1,1A1,1,0,0,1,23.61,8.62Zm-7.61,3h0A4.41,4.41,0,1,1,11.59,16,4.43,4.43,0,0,1,16,11.59Zm7.61-.39a1.6,1.6,0,0,0,.6-3.08,1.58,1.58,0,0,0-1.74.35,1.6,1.6,0,0,0-.35,1.75A1.62,1.62,0,0,0,23.61,11.2ZM16,22a6,6,0,1,0-6-6A6,6,0,0,0,16,22Zm6.93,6H9.07A5.07,5.07,0,0,1,4,22.93V9.07A5.07,5.07,0,0,1,9.07,4H22.93A5.07,5.07,0,0,1,28,9.07V22.93A5.07,5.07,0,0,1,22.93,28Z"/></g></svg>