<svg id="TWITTER" xmlns="http://www.w3.org/2000/svg" viewBox="0 0 32 32"><defs><style>.cls-1{fill:#373737;}</style></defs><title>TWITTER</title><path class="cls-1" d="M21.43,4a5.7,5.7,0,0,1,4.23,1.91,11.27,11.27,0,0,0,3.68-1.47,6,6,0,0,1-2.55,3.35,11.13,11.13,0,0,0,3.33-1A12.2,12.2,0,0,1,27.23,10c0,.26,0,.52,0,.78,0,8-5.82,17.24-16.48,17.24a15.9,15.9,0,0,1-8.88-2.72,12.77,12.77,0,0,0,1.38.08,11.3,11.3,0,0,0,7.2-2.59,5.84,5.84,0,0,1-5.41-4.21,5.62,5.62,0,0,0,2.61-.1,6,6,0,0,1-4.64-6v-.07a5.53,5.53,0,0,0,2.62.76A6.23,6.23,0,0,1,3.85,5.11a16.18,16.18,0,0,0,11.94,6.33,6.27,6.27,0,0,1,1.1-5.14A5.71,5.71,0,0,1,21.43,4Z"/></svg>